<svg viewBox="0 0 67 67" fill="none" xmlns="http://www.w3.org/2000/svg">
<path d="M65.6361 64.125L57.6361 58.725L65.6361 52.625C65.9361 52.325 66.1361 51.925 65.9361 51.525C65.8361 51.125 65.4361 50.825 65.0361 50.825H49.8361L51.9361 46.925C52.1361 46.625 52.1361 46.225 51.9361 45.925C51.7361 45.625 51.4361 45.425 51.0361 45.425H15.0361C14.6361 45.425 14.3361 45.625 14.1361 45.925C13.9361 46.225 13.9361 46.625 14.1361 46.925L16.2361 50.825H1.03607C0.636068 50.825 0.236068 51.125 0.136068 51.525C0.036068 51.925 0.136068 52.425 0.436068 52.625L8.43607 58.725L0.436068 64.125C0.036068 64.325 -0.063932 64.825 0.036068 65.225C0.236068 65.725 0.636068 66.025 1.03607 66.025H24.9361C25.2361 66.025 25.6361 65.825 25.8361 65.525C26.0361 65.225 26.0361 64.825 25.8361 64.525L24.3361 61.425H41.8361L40.3361 64.525C40.1361 64.825 40.2361 65.225 40.3361 65.525C40.5361 65.825 40.8361 66.025 41.2361 66.025H65.0361C65.4361 66.025 65.8361 65.725 66.0361 65.325C66.1361 64.825 65.9361 64.425 65.6361 64.125ZM49.3361 47.525L43.0361 59.425H23.0361L16.7361 47.525H49.3361ZM4.33607 64.025L10.7361 59.725C11.0361 59.525 11.1361 59.225 11.1361 58.925C11.1361 58.625 11.0361 58.325 10.7361 58.125L4.03607 52.925H17.3361L23.3361 64.025H4.33607ZM42.7361 64.025L48.7361 52.925H62.0361L55.3361 58.025C55.0361 58.225 54.9361 58.525 54.9361 58.825C54.9361 59.125 55.1361 59.425 55.3361 59.625L61.7361 63.925H42.7361V64.025ZM1.03607 44.025H17.5361C18.1361 44.025 18.5361 43.625 18.5361 43.025V41.125C18.5361 37.625 15.9361 34.625 12.5361 34.125C13.9361 33.125 14.8361 31.525 14.8361 29.625C14.8361 26.625 12.3361 24.125 9.33607 24.125C6.33607 24.125 3.83607 26.625 3.83607 29.625C3.83607 31.425 4.73607 33.125 6.13607 34.125C2.73607 34.625 0.036068 37.525 0.036068 41.125V43.025C0.036068 43.625 0.436068 44.025 1.03607 44.025ZM9.33607 26.225C11.2361 26.225 12.8361 27.825 12.8361 29.725C12.8361 31.625 11.2361 33.225 9.33607 33.225C7.43607 33.225 5.83607 31.625 5.83607 29.725C5.83607 27.825 7.43607 26.225 9.33607 26.225ZM2.03607 41.125C2.03607 38.325 4.33607 36.125 7.03607 36.125H11.4361C14.2361 36.125 16.4361 38.425 16.4361 41.125V42.025H2.03607V41.125ZM22.6361 44.025H43.4361C44.0361 44.025 44.4361 43.625 44.4361 43.025V39.125C44.4361 35.225 41.2361 32.125 37.4361 32.125H36.4361C38.4361 31.025 39.8361 28.825 39.8361 26.325C39.8361 22.625 36.8361 19.625 33.2361 19.625C29.5361 19.625 26.6361 22.625 26.6361 26.325C26.6361 28.825 28.0361 31.025 30.0361 32.125H28.8361C24.9361 32.125 21.8361 35.325 21.8361 39.125V43.025C21.6361 43.625 22.1361 44.025 22.6361 44.025ZM28.4361 26.225C28.4361 23.625 30.5361 21.525 33.0361 21.525C35.6361 21.525 37.6361 23.625 37.6361 26.225C37.6361 28.825 35.5361 30.925 33.0361 30.925C30.5361 30.925 28.4361 28.825 28.4361 26.225ZM23.6361 39.125C23.6361 36.325 25.9361 34.125 28.6361 34.125H37.3361C40.1361 34.125 42.3361 36.425 42.3361 39.125V42.025H23.6361V39.125ZM48.5361 44.025H65.0361C65.6361 44.025 66.0361 43.625 66.0361 43.025V41.125C66.0361 37.625 63.4361 34.625 60.0361 34.125C61.4361 33.125 62.3361 31.525 62.3361 29.625C62.3361 26.625 59.8361 24.125 56.8361 24.125C53.8361 24.125 51.3361 26.625 51.3361 29.625C51.3361 31.425 52.2361 33.125 53.6361 34.125C50.2361 34.625 47.5361 37.525 47.5361 41.125V43.025C47.5361 43.625 48.0361 44.025 48.5361 44.025ZM56.8361 26.225C58.7361 26.225 60.3361 27.825 60.3361 29.725C60.3361 31.625 58.7361 33.225 56.8361 33.225C54.9361 33.225 53.3361 31.625 53.3361 29.725C53.4361 27.825 54.9361 26.225 56.8361 26.225ZM49.5361 41.125C49.5361 38.325 51.8361 36.125 54.5361 36.125H59.0361C61.8361 36.125 64.0361 38.425 64.0361 41.125V42.025H49.5361V41.125ZM4.03607 15.325L3.13607 20.425C3.03607 20.825 3.23607 21.225 3.53607 21.425C3.83607 21.625 4.23607 21.725 4.63607 21.525L9.23607 19.125L13.8361 21.525C14.1361 21.725 14.5361 21.625 14.9361 21.425C15.2361 21.225 15.4361 20.825 15.3361 20.425L14.4361 15.325L18.1361 11.725C18.4361 11.425 18.5361 11.025 18.4361 10.725C18.3361 10.325 18.0361 10.025 17.6361 10.025L12.4361 9.225L10.1361 4.525C10.0361 4.225 9.63607 4.025 9.23607 4.025C8.93607 4.025 8.53607 4.225 8.33607 4.525L6.03607 9.225L0.936068 10.025C0.536068 10.125 0.236068 10.325 0.136068 10.725C0.036068 11.125 0.136068 11.525 0.436068 11.725L4.03607 15.325ZM6.83607 11.125C7.13607 11.125 7.43607 10.825 7.63607 10.625L9.23607 7.325L10.8361 10.625C10.9361 10.925 11.2361 11.125 11.6361 11.125L15.3361 11.625L12.6361 14.225C12.4361 14.425 12.3361 14.825 12.3361 15.125L12.9361 18.825L9.63607 17.125C9.53607 17.025 9.33607 17.025 9.13607 17.025C8.93607 17.025 8.83607 17.025 8.63607 17.125L5.33607 18.825L5.93607 15.125C6.03607 14.825 5.83607 14.425 5.63607 14.225L2.93607 11.625L6.83607 11.125ZM27.8361 11.325L26.9361 16.425C26.8361 16.825 27.0361 17.225 27.3361 17.425C27.6361 17.625 28.0361 17.725 28.4361 17.525L33.0361 15.125L37.6361 17.525C37.9361 17.725 38.3361 17.625 38.7361 17.425C39.0361 17.225 39.2361 16.825 39.1361 16.425L38.2361 11.325L41.9361 7.725C42.2361 7.425 42.3361 7.025 42.2361 6.725C42.1361 6.325 41.7361 6.025 41.4361 6.025L36.2361 5.225L33.9361 0.525C33.6361 -0.175 32.4361 -0.175 32.1361 0.525L29.8361 5.225L24.6361 6.025C24.2361 6.125 23.9361 6.325 23.8361 6.725C23.7361 7.125 23.8361 7.525 24.1361 7.725L27.8361 11.325ZM30.6361 7.125C30.9361 7.125 31.2361 6.825 31.4361 6.625L33.0361 3.225L34.6361 6.525C34.7361 6.825 35.0361 7.025 35.4361 7.025L39.1361 7.525L36.4361 10.125C36.2361 10.325 36.1361 10.725 36.1361 11.025L36.7361 14.725L33.4361 13.025C33.3361 12.925 33.1361 12.925 32.9361 12.925C32.7361 12.925 32.6361 12.925 32.4361 13.025L29.1361 14.725L29.7361 11.025C29.8361 10.725 29.6361 10.325 29.4361 10.125L26.7361 7.525L30.6361 7.125ZM51.6361 15.325L50.7361 20.425C50.6361 20.825 50.8361 21.225 51.1361 21.425C51.4361 21.625 51.8361 21.725 52.2361 21.525L56.8361 19.125L61.4361 21.525C61.7361 21.725 62.1361 21.625 62.5361 21.425C62.8361 21.225 63.0361 20.825 62.9361 20.425L62.0361 15.325L65.7361 11.725C66.0361 11.425 66.1361 11.025 66.0361 10.725C65.9361 10.325 65.6361 10.125 65.2361 10.025L60.0361 9.225L57.7361 4.525C57.4361 3.825 56.2361 3.825 55.9361 4.525L53.6361 9.225L48.4361 10.025C48.0361 10.125 47.7361 10.325 47.6361 10.725C47.5361 11.125 47.6361 11.525 47.9361 11.725L51.6361 15.325ZM54.4361 11.125C54.7361 11.125 55.0361 10.825 55.2361 10.625L56.8361 7.325L58.4361 10.625C58.5361 10.925 58.8361 11.125 59.2361 11.125L62.9361 11.625L60.2361 14.225C60.0361 14.425 59.9361 14.825 59.9361 15.125L60.5361 18.825L57.2361 17.125C57.1361 17.025 56.9361 17.025 56.7361 17.025C56.5361 17.025 56.4361 17.025 56.2361 17.125L53.0361 18.825L53.6361 15.125C53.7361 14.825 53.5361 14.425 53.3361 14.225L50.6361 11.625L54.4361 11.125Z" fill="silver"/>
</svg>
