<svg viewBox="0 0 26 32" fill="none" xmlns="http://www.w3.org/2000/svg">
<path d="M26 3.8C26 1.7 24.3 0 22.2 0H3.8C1.7 0 0 1.7 0 3.8V28.2C0 30.3 1.7 32 3.8 32H22.2C24.3 32 26 30.3 26 28.2V3.8ZM24 28.2C24 29.2 23.2 30 22.2 30H3.8C2.8 30 2 29.2 2 28.2V3.8C2 2.8 2.8 2 3.8 2H22.2C23.2 2 24 2.8 24 3.8V28.2Z" fill="#C0C0C0"/>
<path d="M6.9 18H18.7C19 18 19.3 17.9 19.5 17.6C19.7 17.4 19.8 17.1 19.7 16.8C19.3 14.4 17.8 12.5 15.8 11.6C16.4 10.9 16.8 10 16.8 8.9C16.8 6.7 15 4.9 12.8 4.9C10.6 4.9 8.8 6.7 8.8 8.9C8.8 9.9 9.2 10.8 9.8 11.6C7.8 12.6 6.2 14.5 5.9 16.8C5.9 17.1 5.9 17.4 6.1 17.6C6.3 17.9 6.6 18 6.9 18ZM10.8 9C10.8 7.9 11.7 7 12.8 7C13.9 7 14.8 7.9 14.8 9C14.8 10.1 13.9 11 12.8 11C11.7 11 10.8 10.1 10.8 9ZM12.8 13C14.8 13 16.6 14.2 17.4 16H8.2C9 14.2 10.8 13 12.8 13ZM21 21H5C4.4 21 4 21.4 4 22C4 22.6 4.4 23 5 23H21C21.6 23 22 22.6 22 22C22 21.4 21.6 21 21 21ZM21 25H5C4.4 25 4 25.4 4 26C4 26.6 4.4 27 5 27H21C21.6 27 22 26.6 22 26C22 25.4 21.6 25 21 25Z" fill="#C0C0C0"/>
</svg>
