<svg viewBox="0 0 64 64" fill="none" xmlns="http://www.w3.org/2000/svg">
<path d="M9 20.5H58M17.5 5V14M49.5 5V14M57.5 22V59.5H7.5V9.5H57.5V22Z" stroke="silver" stroke-width="3" stroke-linejoin="round"/>
<path d="M47.65 50.63C47.317 49.1877 46.4576 47.9217 45.24 47.08C43.31 45.9 40.74 45.5 36.88 44.32C36.32 44.15 35.8 43.19 36.35 41.86C37.241 40.9309 37.9371 39.833 38.3974 38.6308C38.8577 37.4287 39.0728 36.1466 39.03 34.86C39.03 30.31 37.74 26.62 32.6 26.62C27.67 26.62 26.17 30.31 26.17 34.86C26.17 38.01 27.17 40.51 29.17 41.86C29.3786 42.0566 29.532 42.3045 29.6149 42.5789C29.6978 42.8532 29.7074 43.1446 29.6427 43.4238C29.5779 43.703 29.4411 43.9604 29.2459 44.1703C29.0506 44.3802 28.8038 44.5352 28.53 44.62C25.66 45.5 22.34 45.86 20.65 46.78C19.859 47.1369 19.1921 47.7212 18.7344 48.4585C18.2767 49.1958 18.0489 50.0527 18.08 50.92" stroke="silver" stroke-width="3" stroke-linecap="round" stroke-linejoin="round"/>
</svg>
