<svg viewBox="0 0 24 24" fill="none" xmlns="http://www.w3.org/2000/svg">
<path d="M12.1124 2.0011C7.69415 1.93896 4.06207 5.4704 4 9.88867C4 15.3369 11.3643 21.6172 11.6777 21.8818C11.7677 21.9583 11.882 22.0002 12 22C12.118 22.0002 12.2323 21.9583 12.3223 21.8818C12.6357 21.6172 20 15.3369 20 9.88867C19.9391 5.55792 16.4432 2.06195 12.1124 2.0011ZM12 20.834C10.584 19.5625 5 14.2666 5 9.88867C5.03534 6.05536 8.16663 2.97388 12 3C15.8334 2.97388 18.9647 6.05536 19 9.88867C19 14.2627 13.415 19.5615 12 20.834ZM12 7C10.3431 7 9 8.34314 9 10C9 11.6569 10.3431 13 12 13C13.6561 12.9982 14.9982 11.6561 15 10C15 8.34314 13.6569 7 12 7ZM12 12C10.8954 12 10 11.1046 10 10C10 8.89545 10.8954 8 12 8C13.104 8.0014 13.9986 8.896 14 10C14 11.1046 13.1046 12 12 12Z" fill="#C0C0C0"/>
</svg>
