<svg viewBox="0 0 100 100" fill="none" xmlns="http://www.w3.org/2000/svg">
<path d="M88.943 44.394L82.08 39.321H82.01V26.651H82.006L60.009 5.126L59.999 5.137H17.972V39.353L11.056 44.579V73.209H17.972V94.875H82.01V73.208H88.926V64.27L88.943 44.394ZM33.673 65.947V53.318H37.938C38.802 53.318 39.549 53.421 40.179 53.623C40.809 53.827 41.326 54.109 41.733 54.473C42.139 54.835 42.439 55.266 42.633 55.766C42.828 56.264 42.925 56.807 42.925 57.393C42.925 58.014 42.824 58.582 42.62 59.1C42.4211 59.6097 42.1049 60.0653 41.697 60.43C41.285 60.801 40.766 61.09 40.139 61.295C39.513 61.502 38.779 61.606 37.937 61.606H36.283V65.949L33.673 65.947ZM45.166 65.947V53.318H50.022C50.991 53.318 51.873 53.474 52.668 53.789C53.463 54.102 54.145 54.539 54.709 55.1C55.273 55.661 55.713 56.326 56.023 57.098C56.334 57.869 56.488 58.712 56.488 59.63C56.488 60.552 56.334 61.401 56.023 62.175C55.7277 62.9246 55.2803 63.6049 54.709 64.173C54.1245 64.7425 53.43 65.1869 52.668 65.479C51.873 65.792 50.991 65.949 50.022 65.949L45.166 65.947ZM67.033 55.364H61.619V58.853H66.163V60.908H61.619V65.947H58.991V53.318H67.033V55.364ZM56.915 8.221L56.894 29.707L78.925 29.732V44.41H21.055V8.221H56.915ZM78.926 91.79H21.055V73.208H78.926V91.79Z" fill="#D9434D"/>
<path d="M53.547 61.422C53.723 60.895 53.809 60.297 53.809 59.63C53.809 58.968 53.723 58.373 53.547 57.845C53.3922 57.3518 53.1376 56.8956 52.799 56.505C52.4716 56.1376 52.0655 55.8488 51.611 55.66C51.144 55.462 50.615 55.364 50.023 55.364H47.795V63.902H50.023C50.615 63.902 51.145 63.804 51.611 63.609C52.0672 63.4238 52.474 63.1349 52.799 62.765C53.124 62.398 53.373 61.95 53.547 61.422ZM39.735 59.011C40.115 58.616 40.305 58.077 40.305 57.393C40.305 57.08 40.258 56.794 40.162 56.537C40.0707 56.2852 39.9213 56.0584 39.726 55.875C39.5148 55.6823 39.2639 55.5383 38.991 55.453C38.6501 55.348 38.2946 55.2983 37.938 55.306H36.284V59.605H37.938C38.756 59.604 39.355 59.405 39.735 59.011Z" fill="#D9434D"/>
</svg>
